<svg width="1310" height="557" viewBox="0 0 1310 557" fill="none" xmlns="http://www.w3.org/2000/svg">
<g filter="url(#filter0_d_301_6)">
<g clip-path="url(#clip0_301_6)">
<rect x="15" y="15" width="1280" height="527" rx="15" fill="white"/>
<rect x="15" y="15" width="1280" height="527" fill="white"/>
<path d="M372.036 291.424L318.047 358.361" stroke="#E3E8EC" stroke-width="5" stroke-miterlimit="10"/>
<path d="M499.026 406.282L376.599 552.326" stroke="#E3E8EC" stroke-width="5" stroke-miterlimit="10"/>
<path d="M821.443 324.892L700.536 470.176" stroke="#E3E8EC" stroke-width="5" stroke-miterlimit="10"/>
<path d="M1110.4 343.148L1067.06 407.042" stroke="#E3E8EC" stroke-width="5" stroke-miterlimit="10"/>
<path d="M1289.1 445.075L1181.12 630.673" stroke="#E3E8EC" stroke-width="5" stroke-miterlimit="10"/>
<path d="M318.047 380.42C300.557 381.18 299.797 405.521 299.797 405.521C299.797 405.521 299.036 380.42 282.307 380.42C299.797 380.42 299.797 354.558 299.797 354.558C299.797 354.558 302.078 381.18 318.047 380.42Z" stroke="#E3E8EC" stroke-width="5" stroke-miterlimit="10"/>
<path d="M695.518 498.624C678.028 499.385 677.268 523.726 677.268 523.726C677.268 523.726 676.507 498.624 659.778 498.624C677.268 498.624 677.268 472.762 677.268 472.762C677.268 472.762 679.549 499.385 695.518 498.624Z" stroke="#E3E8EC" stroke-width="5" stroke-miterlimit="10"/>
<path d="M1062.8 440.055C1045.31 440.815 1044.55 465.156 1044.55 465.156C1044.55 465.156 1043.79 440.055 1027.06 440.055C1044.55 440.055 1044.55 414.192 1044.55 414.192C1044.55 414.192 1046.83 440.815 1062.8 440.055Z" stroke="#E3E8EC" stroke-width="5" stroke-miterlimit="10"/>
<path d="M197.445 498.624C179.955 499.385 179.195 523.726 179.195 523.726C179.195 523.726 178.434 498.624 161.705 498.624C179.195 498.624 179.195 472.762 179.195 472.762C179.195 472.762 181.476 499.385 197.445 498.624Z" stroke="#E3E8EC" stroke-width="5" stroke-miterlimit="10"/>
<path d="M1273.13 251.109L1220.66 354.558" stroke="#E3E8EC" stroke-width="5" stroke-miterlimit="10"/>
<path d="M918.015 397.915L886.838 439.75" stroke="#E3E8EC" stroke-width="5" stroke-miterlimit="10"/>
<path d="M1460.5 -66.6132L1281.04 145.608" stroke="#E3E8EC" stroke-width="5" stroke-miterlimit="10"/>
<path d="M811.861 -62.0493L684.872 113.66" stroke="#E3E8EC" stroke-width="5" stroke-miterlimit="10"/>
<path d="M1058.54 4.43137C1041.05 5.19202 1040.29 29.5328 1040.29 29.5328C1040.29 29.5328 1039.53 4.43137 1022.8 4.43137C1040.29 4.43137 1040.29 -21.4307 1040.29 -21.4307C1040.29 -21.4307 1042.57 5.19202 1058.54 4.43137Z" stroke="#E3E8EC" stroke-width="5" stroke-miterlimit="10"/>
<path d="M684.416 139.066C666.926 139.827 666.166 164.167 666.166 164.167C666.166 164.167 665.405 139.066 648.676 139.066C666.166 139.066 666.166 113.204 666.166 113.204C666.166 113.204 668.447 139.827 684.416 139.066Z" stroke="#E3E8EC" stroke-width="5" stroke-miterlimit="10"/>
<path d="M1276.02 172.535C1258.53 173.295 1257.77 197.636 1257.77 197.636C1257.77 197.636 1257.01 172.535 1240.28 172.535C1257.77 172.535 1257.77 146.673 1257.77 146.673C1257.77 146.673 1260.05 173.295 1276.02 172.535Z" stroke="#E3E8EC" stroke-width="5" stroke-miterlimit="10"/>
<path d="M1030.41 154.279C1012.92 155.04 1012.16 179.38 1012.16 179.38C1012.16 179.38 1011.39 154.279 994.666 154.279C1012.16 154.279 1012.16 128.417 1012.16 128.417C1012.16 128.417 1014.44 155.04 1030.41 154.279Z" stroke="#E3E8EC" stroke-width="5" stroke-miterlimit="10"/>
<path d="M883.341 102.251L851.403 153.975" stroke="#E3E8EC" stroke-width="5" stroke-miterlimit="10"/>
<path d="M490.966 39.8774L443.059 128.873" stroke="#E3E8EC" stroke-width="5" stroke-miterlimit="10"/>
<path d="M257.518 53.5691L236.986 95.4047" stroke="#E3E8EC" stroke-width="5" stroke-miterlimit="10"/>
<path d="M238.811 128.417C221.322 129.178 220.561 153.518 220.561 153.518C220.561 153.518 219.801 128.417 203.072 128.417C220.561 128.417 220.561 102.555 220.561 102.555C220.561 102.555 222.843 129.178 238.811 128.417Z" stroke="#E3E8EC" stroke-width="5" stroke-miterlimit="10"/>
<path d="M441.843 164.928C424.353 165.689 423.593 190.029 423.593 190.029C423.593 190.029 422.832 164.928 406.103 164.928C423.593 164.928 423.593 139.066 423.593 139.066C423.593 139.066 425.874 165.689 441.843 164.928Z" stroke="#E3E8EC" stroke-width="5" stroke-miterlimit="10"/>
<rect x="-19.8909" y="-206" width="430" height="1007" transform="rotate(16.9816 -19.8909 -206)" fill="#E3E8EC"/>
<rect x="-43.8909" y="-209" width="430" height="1007" transform="rotate(16.9816 -43.8909 -209)" fill="#606E7A"/>
<rect x="1188.11" y="-157" width="430" height="1007" transform="rotate(16.9816 1188.11 -157)" fill="#E3E8EC"/>
<rect x="1213.11" y="-157" width="430" height="1007" transform="rotate(16.9816 1213.11 -157)" fill="#606E7A"/>
<path d="M363.504 298V253.648H390.256V258.96H369.712V272.336H387.952V277.584H369.712V298H363.504ZM407.971 264.016C408.483 264.016 409.059 264.059 409.699 264.144C410.381 264.187 411.043 264.272 411.683 264.4C412.323 264.485 412.899 264.592 413.411 264.72C413.965 264.805 414.371 264.891 414.627 264.976L413.603 270.16C413.133 269.989 412.344 269.797 411.235 269.584C410.168 269.328 408.781 269.2 407.075 269.2C405.965 269.2 404.856 269.328 403.747 269.584C402.68 269.797 401.976 269.947 401.635 270.032V298H395.683V266.128C397.091 265.616 398.84 265.147 400.931 264.72C403.021 264.251 405.368 264.016 407.971 264.016ZM446.866 297.04C445.501 297.381 443.687 297.744 441.426 298.128C439.207 298.512 436.626 298.704 433.682 298.704C431.122 298.704 428.967 298.341 427.218 297.616C425.469 296.848 424.061 295.781 422.994 294.416C421.927 293.051 421.159 291.451 420.69 289.616C420.221 287.739 419.986 285.669 419.986 283.408V264.72H425.938V282.128C425.938 286.181 426.578 289.083 427.858 290.832C429.138 292.581 431.293 293.456 434.322 293.456C434.962 293.456 435.623 293.435 436.306 293.392C436.989 293.349 437.629 293.307 438.226 293.264C438.823 293.179 439.357 293.115 439.826 293.072C440.338 292.987 440.701 292.901 440.914 292.816V264.72H446.866V297.04ZM471.584 298.768C468.896 298.768 466.528 298.341 464.48 297.488C462.475 296.635 460.768 295.44 459.36 293.904C457.995 292.368 456.971 290.555 456.288 288.464C455.605 286.331 455.264 283.984 455.264 281.424C455.264 278.864 455.627 276.517 456.352 274.384C457.12 272.251 458.187 270.416 459.552 268.88C460.917 267.301 462.581 266.085 464.544 265.232C466.549 264.336 468.768 263.888 471.2 263.888C472.693 263.888 474.187 264.016 475.68 264.272C477.173 264.528 478.603 264.933 479.968 265.488L478.624 270.544C477.728 270.117 476.683 269.776 475.488 269.52C474.336 269.264 473.099 269.136 471.776 269.136C468.448 269.136 465.888 270.181 464.096 272.272C462.347 274.363 461.472 277.413 461.472 281.424C461.472 283.216 461.664 284.859 462.048 286.352C462.475 287.845 463.115 289.125 463.968 290.192C464.864 291.259 465.995 292.091 467.36 292.688C468.725 293.243 470.389 293.52 472.352 293.52C473.931 293.52 475.36 293.371 476.64 293.072C477.92 292.773 478.923 292.453 479.648 292.112L480.48 297.104C480.139 297.317 479.648 297.531 479.008 297.744C478.368 297.915 477.643 298.064 476.832 298.192C476.021 298.363 475.147 298.491 474.208 298.576C473.312 298.704 472.437 298.768 471.584 298.768ZM492.438 264.72H505.046V269.712H492.438V285.072C492.438 286.736 492.566 288.123 492.822 289.232C493.078 290.299 493.462 291.152 493.974 291.792C494.486 292.389 495.126 292.816 495.894 293.072C496.662 293.328 497.558 293.456 498.582 293.456C500.374 293.456 501.803 293.264 502.87 292.88C503.979 292.453 504.747 292.155 505.174 291.984L506.326 296.912C505.729 297.211 504.683 297.573 503.19 298C501.697 298.469 499.99 298.704 498.07 298.704C495.809 298.704 493.931 298.427 492.438 297.872C490.987 297.275 489.814 296.4 488.918 295.248C488.022 294.096 487.382 292.688 486.998 291.024C486.657 289.317 486.486 287.355 486.486 285.136V255.44L492.438 254.416V264.72ZM541.121 281.36C541.121 284.005 540.737 286.395 539.969 288.528C539.201 290.661 538.113 292.496 536.705 294.032C535.34 295.568 533.697 296.763 531.777 297.616C529.857 298.427 527.766 298.832 525.505 298.832C523.244 298.832 521.153 298.427 519.233 297.616C517.313 296.763 515.649 295.568 514.241 294.032C512.876 292.496 511.809 290.661 511.041 288.528C510.273 286.395 509.889 284.005 509.889 281.36C509.889 278.757 510.273 276.389 511.041 274.256C511.809 272.08 512.876 270.224 514.241 268.688C515.649 267.152 517.313 265.979 519.233 265.168C521.153 264.315 523.244 263.888 525.505 263.888C527.766 263.888 529.857 264.315 531.777 265.168C533.697 265.979 535.34 267.152 536.705 268.688C538.113 270.224 539.201 272.08 539.969 274.256C540.737 276.389 541.121 278.757 541.121 281.36ZM534.913 281.36C534.913 277.605 534.06 274.64 532.353 272.464C530.689 270.245 528.406 269.136 525.505 269.136C522.604 269.136 520.3 270.245 518.593 272.464C516.929 274.64 516.097 277.605 516.097 281.36C516.097 285.115 516.929 288.101 518.593 290.32C520.3 292.496 522.604 293.584 525.505 293.584C528.406 293.584 530.689 292.496 532.353 290.32C534.06 288.101 534.913 285.115 534.913 281.36ZM557.239 293.712C559.671 293.712 561.463 293.392 562.615 292.752C563.81 292.112 564.407 291.088 564.407 289.68C564.407 288.229 563.831 287.077 562.679 286.224C561.527 285.371 559.628 284.411 556.983 283.344C555.703 282.832 554.466 282.32 553.271 281.808C552.119 281.253 551.116 280.613 550.263 279.888C549.41 279.163 548.727 278.288 548.215 277.264C547.703 276.24 547.447 274.981 547.447 273.488C547.447 270.544 548.535 268.219 550.711 266.512C552.887 264.763 555.852 263.888 559.607 263.888C560.546 263.888 561.484 263.952 562.423 264.08C563.362 264.165 564.236 264.293 565.047 264.464C565.858 264.592 566.562 264.741 567.159 264.912C567.799 265.083 568.29 265.232 568.631 265.36L567.543 270.48C566.903 270.139 565.9 269.797 564.535 269.456C563.17 269.072 561.527 268.88 559.607 268.88C557.943 268.88 556.492 269.221 555.255 269.904C554.018 270.544 553.399 271.568 553.399 272.976C553.399 273.701 553.527 274.341 553.783 274.896C554.082 275.451 554.508 275.963 555.063 276.432C555.66 276.859 556.386 277.264 557.239 277.648C558.092 278.032 559.116 278.437 560.311 278.864C561.89 279.461 563.298 280.059 564.535 280.656C565.772 281.211 566.818 281.872 567.671 282.64C568.567 283.408 569.25 284.347 569.719 285.456C570.188 286.523 570.423 287.845 570.423 289.424C570.423 292.496 569.271 294.821 566.967 296.4C564.706 297.979 561.463 298.768 557.239 298.768C554.295 298.768 551.991 298.512 550.327 298C548.663 297.531 547.532 297.168 546.935 296.912L548.023 291.792C548.706 292.048 549.794 292.432 551.287 292.944C552.78 293.456 554.764 293.712 557.239 293.712ZM576.202 281.424C576.202 278.48 576.628 275.92 577.482 273.744C578.335 271.525 579.466 269.691 580.874 268.24C582.282 266.789 583.903 265.701 585.738 264.976C587.572 264.251 589.45 263.888 591.37 263.888C595.85 263.888 599.284 265.296 601.674 268.112C604.063 270.885 605.257 275.131 605.257 280.848C605.257 281.104 605.257 281.445 605.257 281.872C605.257 282.256 605.236 282.619 605.194 282.96H582.41C582.666 286.416 583.668 289.04 585.418 290.832C587.167 292.624 589.898 293.52 593.61 293.52C595.7 293.52 597.45 293.349 598.858 293.008C600.308 292.624 601.396 292.261 602.122 291.92L602.954 296.912C602.228 297.296 600.948 297.701 599.114 298.128C597.322 298.555 595.274 298.768 592.97 298.768C590.068 298.768 587.551 298.341 585.418 297.488C583.327 296.592 581.599 295.376 580.234 293.84C578.868 292.304 577.844 290.491 577.161 288.4C576.522 286.267 576.202 283.941 576.202 281.424ZM599.05 278.16C599.092 275.472 598.41 273.275 597.002 271.568C595.636 269.819 593.738 268.944 591.306 268.944C589.94 268.944 588.724 269.221 587.658 269.776C586.634 270.288 585.759 270.971 585.034 271.824C584.308 272.677 583.732 273.659 583.306 274.768C582.922 275.877 582.666 277.008 582.538 278.16H599.05ZM655.692 292.624V298H629.004V253.648H635.212V292.624H655.692ZM667.76 298H661.808V264.72H667.76V298ZM664.752 258.704C663.685 258.704 662.768 258.363 662 257.68C661.274 256.955 660.911 255.995 660.911 254.8C660.911 253.605 661.274 252.667 662 251.984C662.768 251.259 663.685 250.896 664.752 250.896C665.818 250.896 666.714 251.259 667.44 251.984C668.208 252.667 668.592 253.605 668.592 254.8C668.592 255.995 668.208 256.955 667.44 257.68C666.714 258.363 665.818 258.704 664.752 258.704ZM683.563 264.72H696.171V269.712H683.563V285.072C683.563 286.736 683.691 288.123 683.947 289.232C684.203 290.299 684.587 291.152 685.099 291.792C685.611 292.389 686.251 292.816 687.019 293.072C687.787 293.328 688.683 293.456 689.707 293.456C691.499 293.456 692.928 293.264 693.995 292.88C695.104 292.453 695.872 292.155 696.299 291.984L697.451 296.912C696.854 297.211 695.808 297.573 694.315 298C692.822 298.469 691.115 298.704 689.195 298.704C686.934 298.704 685.056 298.427 683.563 297.872C682.112 297.275 680.939 296.4 680.043 295.248C679.147 294.096 678.507 292.688 678.123 291.024C677.782 289.317 677.611 287.355 677.611 285.136V255.44L683.563 254.416V264.72ZM701.264 281.424C701.264 278.48 701.691 275.92 702.544 273.744C703.397 271.525 704.528 269.691 705.936 268.24C707.344 266.789 708.965 265.701 710.8 264.976C712.635 264.251 714.512 263.888 716.432 263.888C720.912 263.888 724.347 265.296 726.736 268.112C729.125 270.885 730.32 275.131 730.32 280.848C730.32 281.104 730.32 281.445 730.32 281.872C730.32 282.256 730.299 282.619 730.256 282.96H707.472C707.728 286.416 708.731 289.04 710.48 290.832C712.229 292.624 714.96 293.52 718.672 293.52C720.763 293.52 722.512 293.349 723.92 293.008C725.371 292.624 726.459 292.261 727.184 291.92L728.016 296.912C727.291 297.296 726.011 297.701 724.176 298.128C722.384 298.555 720.336 298.768 718.032 298.768C715.131 298.768 712.613 298.341 710.48 297.488C708.389 296.592 706.661 295.376 705.296 293.84C703.931 292.304 702.907 290.491 702.224 288.4C701.584 286.267 701.264 283.941 701.264 281.424ZM724.112 278.16C724.155 275.472 723.472 273.275 722.064 271.568C720.699 269.819 718.8 268.944 716.368 268.944C715.003 268.944 713.787 269.221 712.72 269.776C711.696 270.288 710.821 270.971 710.096 271.824C709.371 272.677 708.795 273.659 708.368 274.768C707.984 275.877 707.728 277.008 707.6 278.16H724.112Z" fill="#606E7A"/>
<path d="M766.157 270.064C767.141 270.064 767.981 270.136 768.677 270.28C769.397 270.424 769.901 270.556 770.189 270.676L769.577 273.556C769.289 273.412 768.881 273.28 768.353 273.16C767.825 273.016 767.177 272.944 766.409 272.944C764.849 272.944 763.757 273.376 763.133 274.24C762.509 275.08 762.197 276.22 762.197 277.66V279.28H769.397V282.088H762.197V298H758.849V277.588C758.849 275.188 759.437 273.34 760.613 272.044C761.789 270.724 763.637 270.064 766.157 270.064ZM789.259 288.64C789.259 290.128 789.043 291.472 788.611 292.672C788.179 293.872 787.567 294.904 786.775 295.768C786.007 296.632 785.083 297.304 784.003 297.784C782.923 298.24 781.747 298.468 780.475 298.468C779.203 298.468 778.027 298.24 776.947 297.784C775.867 297.304 774.931 296.632 774.139 295.768C773.371 294.904 772.771 293.872 772.339 292.672C771.907 291.472 771.691 290.128 771.691 288.64C771.691 287.176 771.907 285.844 772.339 284.644C772.771 283.42 773.371 282.376 774.139 281.512C774.931 280.648 775.867 279.988 776.947 279.532C778.027 279.052 779.203 278.812 780.475 278.812C781.747 278.812 782.923 279.052 784.003 279.532C785.083 279.988 786.007 280.648 786.775 281.512C787.567 282.376 788.179 283.42 788.611 284.644C789.043 285.844 789.259 287.176 789.259 288.64ZM785.767 288.64C785.767 286.528 785.287 284.86 784.327 283.636C783.391 282.388 782.107 281.764 780.475 281.764C778.843 281.764 777.547 282.388 776.587 283.636C775.651 284.86 775.183 286.528 775.183 288.64C775.183 290.752 775.651 292.432 776.587 293.68C777.547 294.904 778.843 295.516 780.475 295.516C782.107 295.516 783.391 294.904 784.327 293.68C785.287 292.432 785.767 290.752 785.767 288.64ZM800.882 278.884C801.17 278.884 801.494 278.908 801.854 278.956C802.238 278.98 802.61 279.028 802.97 279.1C803.33 279.148 803.654 279.208 803.942 279.28C804.254 279.328 804.482 279.376 804.626 279.424L804.05 282.34C803.786 282.244 803.342 282.136 802.718 282.016C802.118 281.872 801.338 281.8 800.378 281.8C799.754 281.8 799.13 281.872 798.506 282.016C797.906 282.136 797.51 282.22 797.318 282.268V298H793.97V280.072C794.762 279.784 795.746 279.52 796.922 279.28C798.098 279.016 799.418 278.884 800.882 278.884ZM833.073 273.052V276.076H825.225V298H821.733V276.076H813.885V273.052H833.073ZM833.539 301.492C833.803 301.612 834.139 301.72 834.547 301.816C834.979 301.936 835.399 301.996 835.807 301.996C837.127 301.996 838.159 301.696 838.903 301.096C839.647 300.52 840.319 299.572 840.919 298.252C839.407 295.372 837.991 292.324 836.671 289.108C835.375 285.868 834.295 282.592 833.431 279.28H837.031C837.295 280.36 837.607 281.524 837.967 282.772C838.351 284.02 838.771 285.304 839.227 286.624C839.683 287.944 840.175 289.264 840.703 290.584C841.231 291.904 841.783 293.176 842.359 294.4C843.271 291.88 844.063 289.384 844.735 286.912C845.407 284.44 846.043 281.896 846.643 279.28H850.099C849.235 282.808 848.275 286.204 847.219 289.468C846.163 292.708 845.023 295.744 843.799 298.576C843.319 299.656 842.815 300.58 842.287 301.348C841.783 302.14 841.219 302.788 840.595 303.292C839.971 303.796 839.263 304.168 838.471 304.408C837.703 304.648 836.827 304.768 835.843 304.768C835.579 304.768 835.303 304.744 835.015 304.696C834.727 304.672 834.439 304.624 834.151 304.552C833.887 304.504 833.635 304.444 833.395 304.372C833.179 304.3 833.023 304.24 832.927 304.192L833.539 301.492ZM866.626 288.676C866.626 286.492 866.086 284.812 865.006 283.636C863.926 282.46 862.486 281.872 860.686 281.872C859.678 281.872 858.886 281.908 858.31 281.98C857.758 282.052 857.314 282.136 856.978 282.232V294.04C857.386 294.376 857.974 294.7 858.742 295.012C859.51 295.324 860.35 295.48 861.262 295.48C862.222 295.48 863.038 295.312 863.71 294.976C864.406 294.616 864.97 294.136 865.402 293.536C865.834 292.912 866.146 292.192 866.338 291.376C866.53 290.536 866.626 289.636 866.626 288.676ZM870.118 288.676C870.118 290.092 869.926 291.4 869.542 292.6C869.182 293.8 868.642 294.832 867.922 295.696C867.202 296.56 866.314 297.232 865.258 297.712C864.226 298.192 863.038 298.432 861.694 298.432C860.614 298.432 859.654 298.288 858.814 298C857.998 297.712 857.386 297.436 856.978 297.172V304.66H853.63V279.856C854.422 279.664 855.406 279.46 856.582 279.244C857.782 279.004 859.162 278.884 860.722 278.884C862.162 278.884 863.458 279.112 864.61 279.568C865.762 280.024 866.746 280.672 867.562 281.512C868.378 282.352 869.002 283.384 869.434 284.608C869.89 285.808 870.118 287.164 870.118 288.676ZM873.785 288.676C873.785 287.02 874.025 285.58 874.505 284.356C874.985 283.108 875.621 282.076 876.413 281.26C877.205 280.444 878.117 279.832 879.149 279.424C880.181 279.016 881.237 278.812 882.317 278.812C884.837 278.812 886.769 279.604 888.113 281.188C889.457 282.748 890.129 285.136 890.129 288.352C890.129 288.496 890.129 288.688 890.129 288.928C890.129 289.144 890.117 289.348 890.093 289.54H877.277C877.421 291.484 877.985 292.96 878.969 293.968C879.953 294.976 881.489 295.48 883.577 295.48C884.753 295.48 885.737 295.384 886.529 295.192C887.345 294.976 887.957 294.772 888.365 294.58L888.833 297.388C888.425 297.604 887.705 297.832 886.673 298.072C885.665 298.312 884.513 298.432 883.217 298.432C881.585 298.432 880.169 298.192 878.969 297.712C877.793 297.208 876.821 296.524 876.053 295.66C875.285 294.796 874.709 293.776 874.325 292.6C873.965 291.4 873.785 290.092 873.785 288.676ZM886.637 286.84C886.661 285.328 886.277 284.092 885.485 283.132C884.717 282.148 883.649 281.656 882.281 281.656C881.513 281.656 880.829 281.812 880.229 282.124C879.653 282.412 879.161 282.796 878.753 283.276C878.345 283.756 878.021 284.308 877.781 284.932C877.565 285.556 877.421 286.192 877.349 286.84H886.637ZM903.075 298.432C901.563 298.432 900.231 298.192 899.079 297.712C897.951 297.232 896.991 296.56 896.199 295.696C895.431 294.832 894.855 293.812 894.471 292.636C894.087 291.436 893.895 290.116 893.895 288.676C893.895 287.236 894.099 285.916 894.507 284.716C894.939 283.516 895.539 282.484 896.307 281.62C897.075 280.732 898.011 280.048 899.115 279.568C900.243 279.064 901.491 278.812 902.859 278.812C903.699 278.812 904.539 278.884 905.379 279.028C906.219 279.172 907.023 279.4 907.791 279.712L907.035 282.556C906.531 282.316 905.943 282.124 905.271 281.98C904.623 281.836 903.927 281.764 903.183 281.764C901.311 281.764 899.871 282.352 898.863 283.528C897.879 284.704 897.387 286.42 897.387 288.676C897.387 289.684 897.495 290.608 897.711 291.448C897.951 292.288 898.311 293.008 898.791 293.608C899.295 294.208 899.931 294.676 900.699 295.012C901.467 295.324 902.403 295.48 903.507 295.48C904.395 295.48 905.199 295.396 905.919 295.228C906.639 295.06 907.203 294.88 907.611 294.688L908.079 297.496C907.887 297.616 907.611 297.736 907.251 297.856C906.891 297.952 906.483 298.036 906.027 298.108C905.571 298.204 905.079 298.276 904.551 298.324C904.047 298.396 903.555 298.432 903.075 298.432ZM911.673 298V270.64L915.021 270.064V279.64C915.645 279.4 916.305 279.22 917.001 279.1C917.721 278.956 918.429 278.884 919.125 278.884C920.613 278.884 921.849 279.1 922.833 279.532C923.817 279.94 924.597 280.528 925.173 281.296C925.773 282.04 926.193 282.94 926.433 283.996C926.673 285.052 926.793 286.216 926.793 287.488V298H923.445V288.208C923.445 287.056 923.361 286.072 923.193 285.256C923.049 284.44 922.797 283.78 922.437 283.276C922.077 282.772 921.597 282.412 920.997 282.196C920.397 281.956 919.653 281.836 918.765 281.836C918.405 281.836 918.033 281.86 917.649 281.908C917.265 281.956 916.893 282.016 916.533 282.088C916.197 282.136 915.885 282.196 915.597 282.268C915.333 282.34 915.141 282.4 915.021 282.448V298H911.673ZM948.763 288.64C948.763 290.128 948.547 291.472 948.115 292.672C947.683 293.872 947.071 294.904 946.279 295.768C945.511 296.632 944.587 297.304 943.507 297.784C942.427 298.24 941.251 298.468 939.979 298.468C938.707 298.468 937.531 298.24 936.451 297.784C935.371 297.304 934.435 296.632 933.643 295.768C932.875 294.904 932.275 293.872 931.843 292.672C931.411 291.472 931.195 290.128 931.195 288.64C931.195 287.176 931.411 285.844 931.843 284.644C932.275 283.42 932.875 282.376 933.643 281.512C934.435 280.648 935.371 279.988 936.451 279.532C937.531 279.052 938.707 278.812 939.979 278.812C941.251 278.812 942.427 279.052 943.507 279.532C944.587 279.988 945.511 280.648 946.279 281.512C947.071 282.376 947.683 283.42 948.115 284.644C948.547 285.844 948.763 287.176 948.763 288.64ZM945.271 288.64C945.271 286.528 944.791 284.86 943.831 283.636C942.895 282.388 941.611 281.764 939.979 281.764C938.347 281.764 937.051 282.388 936.091 283.636C935.155 284.86 934.687 286.528 934.687 288.64C934.687 290.752 935.155 292.432 936.091 293.68C937.051 294.904 938.347 295.516 939.979 295.516C941.611 295.516 942.895 294.904 943.831 293.68C944.791 292.432 945.271 290.752 945.271 288.64Z" fill="#7D817C"/>
<path d="M393.495 324.55H402.07C401.58 322.8 401.055 321.19 400.495 319.79L403.05 319.37C403.61 320.875 404.135 322.59 404.625 324.55H413.515V326.965H410.4C409.385 330.885 407.95 334.21 406.13 336.975C408.86 339.32 411.31 341.665 413.515 344.01L411.555 345.97C409.595 343.66 407.285 341.35 404.66 338.97C401.895 342.26 398.395 344.675 394.195 346.145L392.76 343.87C396.89 342.54 400.25 340.335 402.805 337.325C400.355 335.225 397.695 333.09 394.825 330.92L396.54 329.275C399.305 331.305 401.895 333.335 404.275 335.365C405.885 332.95 407.075 330.15 407.915 326.965H393.495V324.55ZM385.41 319.965C387.79 321.75 389.785 323.535 391.43 325.32L389.61 327.105C388.175 325.39 386.215 323.57 383.695 321.61L385.41 319.965ZM405.815 350.87C403.925 350.87 401.86 350.835 399.655 350.8C397.415 350.765 395.63 350.555 394.23 350.17C392.865 349.75 391.64 348.875 390.555 347.615C390.1 347.02 389.645 346.74 389.225 346.74C388.385 346.74 387.02 348.35 385.095 351.57L383.205 349.855C385.06 346.915 386.705 345.13 388.14 344.5V333.86H383.135V331.55H390.485V344.64C390.765 344.85 391.045 345.13 391.325 345.445C392.165 346.46 393.04 347.195 394.02 347.65C395.07 348.14 396.645 348.42 398.675 348.49C400.495 348.525 402.77 348.56 405.465 348.56C407.11 348.56 408.79 348.525 410.505 348.49C412.185 348.455 413.515 348.42 414.425 348.35L413.83 350.87H405.815ZM423 320.595H444.28V332.74H423V320.595ZM441.795 330.605V327.735H425.485V330.605H441.795ZM425.485 325.67H441.795V322.765H425.485V325.67ZM432.625 337.64H418.03V335.33H449.005V337.64H435.18V341.595H445.26V343.835H435.18V348.49C436.86 348.63 438.89 348.735 441.2 348.735C444.21 348.735 446.765 348.7 448.83 348.63L448.13 351.01C445.61 351.01 443.37 350.975 441.375 350.94C435.6 350.94 431.68 350.485 429.615 349.61C427.83 348.805 426.22 347.265 424.82 344.955C423.455 347.545 421.705 349.68 419.605 351.395L417.96 349.33C421.18 346.74 423.385 343.24 424.54 338.865L426.92 339.285C426.57 340.58 426.185 341.805 425.73 342.96C427.2 345.41 428.88 346.95 430.7 347.615C431.26 347.79 431.89 347.965 432.625 348.105V337.64ZM456.74 320.805H480.085V334.35H469.795V337.535H483.725V339.915H472.035C474.52 343.065 478.685 345.9 484.495 348.35L482.78 350.555C476.69 347.37 472.42 343.835 469.97 339.915H469.795V351.465H467.205V339.915H467.065C464.405 344.22 460.065 347.755 453.975 350.52L452.54 348.21C458.245 346.04 462.375 343.275 464.93 339.915H453.275V337.535H467.205V334.35H456.74V320.805ZM477.6 332.145V328.75H469.795V332.145H477.6ZM467.205 332.145V328.75H459.26V332.145H467.205ZM459.26 326.545H467.205V323.045H459.26V326.545ZM469.795 323.045V326.545H477.6V323.045H469.795ZM494.855 337.5V351.5H492.475V338.69C491.39 341.665 489.99 344.36 488.275 346.81L487.225 344.185C489.675 341.245 491.425 337.885 492.475 334.105H487.995V331.83H492.475V319.475H494.855V331.83H499.265V334.105H494.855V335.365C496.395 336.975 497.97 338.795 499.545 340.79L498.145 342.925C496.885 340.685 495.765 338.865 494.855 337.5ZM497.48 321.785L499.3 322.03C499.125 324.9 498.705 327.455 498.04 329.695L496.325 329.17C496.955 327.035 497.34 324.585 497.48 321.785ZM489.535 322.345C490.06 324.445 490.55 326.825 490.97 329.52L489.22 329.975C488.8 327.525 488.31 325.18 487.715 322.94L489.535 322.345ZM502.94 334.175C502.765 341.42 501.47 347.23 499.055 351.605L497.13 349.89C499.335 346.005 500.49 340.615 500.595 333.685V322.205H508.645C508.295 321.295 507.98 320.49 507.63 319.755L510.185 319.335C510.5 320.175 510.815 321.155 511.13 322.205H519.005V324.48H502.975V332.075H509.03V329.485H504.83V327.385H508.96V325.39H511.27V327.385H516.975V332.075H519.565V334.175H516.975V338.935H511.27V341.63H517.395V351.57H515.19V350.135H506.3V351.57H504.095V341.63H508.96V338.935H504.83V336.835H509.03V334.175H502.94ZM511.235 334.175V336.835H514.805V334.175H511.235ZM511.235 329.485V332.075H514.805V329.485H511.235ZM506.3 348H515.19V343.73H506.3V348ZM522.855 328.015H526.635V319.475H529.12V328.015H532.655V330.465H529.12V351.465H526.635V330.465H522.855V328.015ZM533.11 321.925H542.245V319.51H544.66V321.925H548.755C548.44 321.155 548.09 320.455 547.74 319.825L549.91 319.475C550.225 320.21 550.54 321.015 550.82 321.925H553.83V324.06H544.66V326.475H552.605V339.145H550.26V336.73H544.66V338.935H542.245V336.73H536.68V339.18H534.335V326.475H542.245V324.06H533.11V321.925ZM536.68 335.015H542.245V332.635H536.68V335.015ZM544.66 332.635V335.015H550.26V332.635H544.66ZM536.68 330.885H542.245V328.435H536.68V330.885ZM544.66 328.435V330.885H550.26V328.435H544.66ZM532.305 341.385H547.495V339.635H549.945V341.385H554.53V343.625H549.945V348.735C549.945 350.555 549.035 351.465 547.25 351.465H543.4L542.875 349.12C544.1 349.225 545.29 349.295 546.41 349.295C547.11 349.295 547.495 348.91 547.495 348.14V343.625H532.305V341.385ZM537.415 343.73C539.375 345.2 540.985 346.67 542.315 348.14L540.74 349.715C539.55 348.315 537.94 346.81 535.875 345.2L537.415 343.73ZM583.79 340.65V351.605H581.34V350.1H566.29V351.605H563.84V340.65H583.79ZM566.29 347.825H581.34V342.925H566.29V347.825ZM569.09 325.04L571.54 325.565C571.015 326.37 570.49 327.14 569.93 327.875H582.845V329.905C581.41 331.9 579.345 333.65 576.65 335.19C580.465 336.695 584.735 337.605 589.46 337.955L588.9 340.23C583.3 339.81 578.365 338.585 574.025 336.485C569.895 338.375 564.68 339.845 558.38 340.93L557.435 338.69C563.07 337.78 567.76 336.625 571.47 335.155C569.685 334.105 568.04 332.915 566.535 331.585C565.17 332.81 563.7 333.895 562.16 334.875L560.55 332.915C564.015 330.92 566.85 328.295 569.09 325.04ZM574.06 334.035C576.475 332.845 578.4 331.48 579.835 330.01H568.11L568.005 330.115C569.86 331.655 571.89 332.95 574.06 334.035ZM587.71 322.03V328.645H585.155V324.305H561.845V328.645H559.29V322.03H572.1C571.68 321.12 571.26 320.315 570.805 319.58L573.57 319.16C573.99 320 574.375 320.98 574.795 322.03H587.71ZM607.24 327.84H594.22V325.355H607.45C606.855 323.5 606.12 321.715 605.28 320L607.73 319.335C608.605 321.33 609.27 323.15 609.76 324.83L608.395 325.355H622.815V327.84H609.795V336.1H621.135V338.445H609.795V347.825H624.04V350.31H592.995V347.825H607.24V338.445H595.9V336.1H607.24V327.84ZM651.725 348.56C655.225 348.56 657.85 348.49 659.6 348.42L659.18 350.94H652.285C643.885 350.94 638.67 350.485 636.57 349.575C634.715 348.805 633.07 347.37 631.635 345.34C631.005 347.58 630.13 349.645 629.01 351.535L627.19 349.925C629.08 346.74 630.095 343.17 630.27 339.18L632.51 339.46C632.44 340.65 632.335 341.735 632.16 342.785C633.07 344.22 634.085 345.34 635.17 346.145V337.64H628.24V335.33H643.08V337.64H637.41V341.35H642.205V343.59H637.41V347.405C637.62 347.475 637.795 347.545 637.935 347.615C639.965 348.245 644.55 348.56 651.725 348.56ZM629.815 320.77H641.75V332.985H629.815V320.77ZM639.3 330.885V327.91H632.265V330.885H639.3ZM632.265 325.95H639.3V322.87H632.265V325.95ZM643.57 320.805H658.69V323.115H652.39C652.285 324.095 652.145 325.005 651.935 325.915H657.71V340.055H655.365V328.085H646.895V340.055H644.655V325.915H649.66C649.87 325.005 650.01 324.06 650.115 323.115H643.57V320.805ZM653.65 340.16C655.82 341.84 657.64 343.52 659.11 345.2L657.325 346.95C656.03 345.34 654.245 343.59 651.97 341.77L653.65 340.16ZM649.975 329.73H652.285V334.665C652.215 337.99 651.55 340.65 650.36 342.645C649.17 344.5 647.21 345.935 644.55 346.985L643.185 344.815C645.705 343.905 647.455 342.645 648.47 341.07C649.38 339.425 649.905 337.29 649.975 334.665V329.73ZM675.14 325.46V349.33H672.69V347.335H666.32V350.345H663.87V325.46H667.125C667.825 323.5 668.315 321.47 668.63 319.37L671.15 319.72C670.73 321.785 670.205 323.71 669.505 325.46H675.14ZM666.32 344.99H672.69V337.325H666.32V344.99ZM666.32 335.05H672.69V327.84H666.32V335.05ZM681.23 333.58C683.75 336.485 685.64 339.04 686.97 341.21L684.975 342.61C683.54 340.3 681.615 337.71 679.2 334.84L681.23 333.58ZM693.235 325.495C693.235 337.115 693.06 344.325 692.71 347.055C692.36 349.715 690.75 351.08 687.81 351.08C687.11 351.08 685.92 351.01 684.24 350.94L683.645 348.63C685.115 348.7 686.375 348.735 687.46 348.735C689.105 348.735 690.05 347.825 690.33 346.04C690.54 344.08 690.68 338.025 690.75 327.945H681.125C680.145 330.15 678.99 332.145 677.625 333.93L676.12 331.935C678.57 328.505 680.215 324.305 681.125 319.335L683.61 319.65C683.19 321.715 682.7 323.675 682.07 325.495H693.235ZM708.25 323.01H728.725V325.495H719.905V348H717.07V325.495H708.25V323.01ZM729.5 329.905H732.545L738.075 344.185L743.43 329.905H746.51L736.605 354.93H733.56L736.675 347.58L729.5 329.905ZM757.503 329.415C760.093 329.415 762.158 330.36 763.663 332.32C765.028 334.07 765.728 336.275 765.728 339.005C765.728 341.665 765.028 343.87 763.698 345.62C762.228 347.51 760.233 348.49 757.643 348.49C755.053 348.49 753.058 347.23 751.658 344.71V354.93H748.858V329.905H751.483V332.88C752.778 330.57 754.773 329.415 757.503 329.415ZM757.153 331.725C755.333 331.725 753.898 332.425 752.918 333.86C752.008 335.12 751.553 336.8 751.553 338.83V339.18C751.553 341.28 752.043 342.96 753.093 344.255C754.073 345.515 755.368 346.18 757.048 346.18C759.008 346.18 760.478 345.48 761.493 344.15C762.403 342.89 762.858 341.175 762.858 339.005C762.858 336.87 762.403 335.155 761.563 333.895C760.548 332.425 759.078 331.725 757.153 331.725ZM776.821 329.415C779.726 329.415 781.931 330.395 783.401 332.355C784.731 334.105 785.431 336.59 785.501 339.74H771.221C771.361 341.77 771.886 343.345 772.866 344.465C773.846 345.585 775.211 346.145 776.926 346.145C778.396 346.145 779.621 345.76 780.531 345.025C781.301 344.395 781.896 343.45 782.351 342.19H785.151C784.731 343.94 783.926 345.34 782.701 346.46C781.196 347.79 779.271 348.49 776.926 348.49C774.336 348.49 772.236 347.615 770.696 345.935C769.086 344.185 768.316 341.875 768.316 338.935C768.316 336.275 769.051 334.035 770.591 332.25C772.131 330.36 774.196 329.415 776.821 329.415ZM776.891 331.76C775.281 331.76 773.986 332.285 773.006 333.335C772.026 334.385 771.466 335.785 771.291 337.57H782.596C782.246 333.685 780.321 331.76 776.891 331.76ZM796.585 329.415C798.825 329.415 800.61 329.94 801.975 330.99C803.375 332.075 804.215 333.72 804.53 335.925H801.765C801.52 334.525 800.96 333.475 800.085 332.775C799.175 332.075 798.02 331.76 796.585 331.76C794.835 331.76 793.435 332.425 792.42 333.755C791.44 335.05 790.95 336.8 790.95 339.005C790.95 341.21 791.405 342.96 792.385 344.22C793.33 345.48 794.73 346.145 796.55 346.145C799.63 346.145 801.415 344.57 801.835 341.455H804.635C804.215 343.765 803.34 345.55 801.94 346.74C800.575 347.895 798.79 348.49 796.55 348.49C793.82 348.49 791.72 347.58 790.215 345.76C788.78 344.045 788.08 341.805 788.08 339.04C788.08 336.275 788.78 334.035 790.215 332.285C791.755 330.36 793.89 329.415 796.585 329.415ZM807.921 322.52H810.721V332.88C811.351 331.725 812.191 330.85 813.241 330.255C814.221 329.695 815.306 329.415 816.531 329.415C818.631 329.415 820.276 330.01 821.396 331.27C822.516 332.495 823.076 334.28 823.076 336.59V348H820.276V337.01C820.276 335.33 819.856 334.035 819.086 333.125C818.246 332.215 817.091 331.76 815.586 331.76C814.186 331.76 813.031 332.32 812.121 333.44C811.176 334.56 810.721 335.995 810.721 337.675V348H807.921V322.52ZM835.454 329.415C838.149 329.415 840.319 330.325 841.929 332.215C843.469 334 844.239 336.24 844.239 338.97C844.239 341.665 843.469 343.905 841.964 345.655C840.319 347.545 838.149 348.49 835.454 348.49C832.724 348.49 830.589 347.545 828.979 345.655C827.439 343.905 826.669 341.665 826.669 338.97C826.669 336.24 827.439 334 828.979 332.215C830.589 330.325 832.724 329.415 835.454 329.415ZM835.454 331.76C833.529 331.76 832.024 332.495 830.974 333.965C829.994 335.295 829.539 336.94 829.539 338.97C829.539 340.965 829.994 342.61 830.974 343.94C832.024 345.41 833.529 346.145 835.454 346.145C837.344 346.145 838.849 345.41 839.969 343.94C840.914 342.61 841.404 340.93 841.404 338.97C841.404 336.94 840.914 335.295 839.969 333.965C838.849 332.495 837.344 331.76 835.454 331.76ZM867.512 319.79H869.962V329.065H872.027V331.55H863.767V333.335C863.767 334.42 863.732 335.47 863.697 336.485H870.417V351.36H867.932V338.9H863.557C863.137 344.15 862.192 348.14 860.687 350.94L858.797 349.26C860.407 345.935 861.247 340.615 861.282 333.335V320.49H863.767V329.065H867.512V319.79ZM876.332 331.935V335.785C876.192 342.295 875.037 347.475 872.937 351.325L871.187 349.47C872.937 346.18 873.882 341.595 874.022 335.785V321.89C879.517 321.82 884.487 321.085 888.897 319.685L890.157 321.96C886.027 323.15 881.407 323.85 876.332 324.06V329.555H889.282V331.69C888.477 336.555 886.937 340.65 884.697 343.975C886.412 346.285 888.512 348.035 890.997 349.295L889.737 351.5C887.112 350.135 884.907 348.315 883.157 346.005C881.232 348.245 878.922 350.1 876.262 351.535L875.037 349.295C877.662 347.86 879.867 346.04 881.687 343.87C879.692 340.615 878.292 336.625 877.487 331.935H876.332ZM879.762 331.935C880.532 335.75 881.687 339.005 883.227 341.735C884.977 338.935 886.202 335.645 886.832 331.935H879.762ZM894.882 325.845H908.567V319.51H911.157V325.845H924.807V328.26H913.397C915.742 333.825 919.942 338.795 925.962 343.17L924.247 345.34C918.087 340.3 913.817 334.595 911.437 328.26H911.157V341.91H918.647V344.325H911.157V351.5H908.567V344.325H901.357V341.91H908.567V328.26H908.322C905.732 335.365 901.322 341.21 895.092 345.795L893.657 343.45C899.537 339.53 903.737 334.455 906.327 328.26H894.882V325.845Z" fill="black"/>
<rect x="458" y="420" width="394" height="77" rx="38.5" fill="#606E7A"/>
<path d="M552.22 471.28C550.937 471.28 549.642 471.233 548.335 471.14C547.028 471.07 545.885 470.907 544.905 470.65V447.095C545.418 447.002 545.967 446.92 546.55 446.85C547.133 446.757 547.728 446.687 548.335 446.64C548.942 446.593 549.537 446.558 550.12 446.535C550.727 446.512 551.298 446.5 551.835 446.5C553.305 446.5 554.67 446.617 555.93 446.85C557.19 447.06 558.275 447.422 559.185 447.935C560.118 448.448 560.842 449.125 561.355 449.965C561.868 450.805 562.125 451.843 562.125 453.08C562.125 454.223 561.845 455.203 561.285 456.02C560.748 456.837 559.99 457.49 559.01 457.98C560.48 458.47 561.565 459.193 562.265 460.15C562.965 461.107 563.315 462.32 563.315 463.79C563.315 466.287 562.405 468.165 560.585 469.425C558.765 470.662 555.977 471.28 552.22 471.28ZM549.245 460.08V467.465C549.735 467.512 550.26 467.547 550.82 467.57C551.38 467.593 551.893 467.605 552.36 467.605C553.27 467.605 554.11 467.547 554.88 467.43C555.673 467.313 556.35 467.115 556.91 466.835C557.493 466.532 557.948 466.135 558.275 465.645C558.625 465.155 558.8 464.525 558.8 463.755C558.8 462.378 558.298 461.422 557.295 460.885C556.292 460.348 554.903 460.08 553.13 460.08H549.245ZM549.245 456.615H552.36C554.04 456.615 555.358 456.382 556.315 455.915C557.272 455.425 557.75 454.562 557.75 453.325C557.75 452.158 557.248 451.33 556.245 450.84C555.265 450.35 553.982 450.105 552.395 450.105C551.718 450.105 551.112 450.117 550.575 450.14C550.062 450.163 549.618 450.198 549.245 450.245V456.615ZM578.688 471.525C576.868 471.525 575.235 471.245 573.788 470.685C572.341 470.125 571.116 469.308 570.113 468.235C569.11 467.138 568.34 465.808 567.803 464.245C567.266 462.682 566.998 460.885 566.998 458.855C566.998 456.825 567.301 455.028 567.908 453.465C568.538 451.902 569.39 450.583 570.463 449.51C571.536 448.413 572.796 447.585 574.243 447.025C575.69 446.465 577.241 446.185 578.898 446.185C579.901 446.185 580.811 446.267 581.628 446.43C582.445 446.57 583.156 446.733 583.763 446.92C584.37 447.107 584.871 447.305 585.268 447.515C585.665 447.725 585.945 447.877 586.108 447.97L584.813 451.575C584.253 451.225 583.448 450.898 582.398 450.595C581.371 450.268 580.251 450.105 579.038 450.105C577.988 450.105 577.008 450.292 576.098 450.665C575.188 451.015 574.395 451.552 573.718 452.275C573.065 452.998 572.551 453.908 572.178 455.005C571.805 456.102 571.618 457.373 571.618 458.82C571.618 460.103 571.758 461.282 572.038 462.355C572.341 463.428 572.796 464.362 573.403 465.155C574.01 465.925 574.78 466.532 575.713 466.975C576.646 467.395 577.766 467.605 579.073 467.605C580.636 467.605 581.908 467.453 582.888 467.15C583.868 466.823 584.626 466.52 585.163 466.24L586.353 469.845C586.073 470.032 585.688 470.218 585.198 470.405C584.731 470.592 584.171 470.778 583.518 470.965C582.865 471.128 582.13 471.257 581.313 471.35C580.496 471.467 579.621 471.525 578.688 471.525ZM599.572 471.525C597.916 471.525 596.492 471.292 595.302 470.825C594.112 470.335 593.121 469.658 592.327 468.795C591.557 467.932 590.986 466.917 590.612 465.75C590.239 464.583 590.052 463.3 590.052 461.9V446.745H594.497V461.48C594.497 462.577 594.614 463.522 594.847 464.315C595.104 465.085 595.454 465.715 595.897 466.205C596.364 466.695 596.901 467.057 597.507 467.29C598.137 467.523 598.837 467.64 599.607 467.64C600.377 467.64 601.077 467.523 601.707 467.29C602.337 467.057 602.874 466.695 603.317 466.205C603.784 465.715 604.134 465.085 604.367 464.315C604.624 463.522 604.752 462.577 604.752 461.48V446.745H609.197V461.9C609.197 463.3 608.999 464.583 608.602 465.75C608.229 466.917 607.646 467.932 606.852 468.795C606.082 469.658 605.091 470.335 603.877 470.825C602.664 471.292 601.229 471.525 599.572 471.525ZM614.837 446.745H619.247V471H614.837V446.745ZM650.13 446.745V450.56H642.675V471H638.23V450.56H630.775V446.745H650.13ZM667.443 452.695C665.553 459.648 663.359 465.948 660.863 471.595C660.396 472.645 659.918 473.543 659.428 474.29C658.938 475.037 658.389 475.655 657.783 476.145C657.176 476.635 656.499 476.985 655.753 477.195C655.006 477.428 654.143 477.545 653.163 477.545C652.509 477.545 651.856 477.475 651.203 477.335C650.573 477.195 650.094 477.043 649.768 476.88L650.538 473.485C651.378 473.812 652.206 473.975 653.023 473.975C654.119 473.975 654.971 473.707 655.578 473.17C656.208 472.657 656.756 471.852 657.223 470.755C655.893 468.188 654.609 465.388 653.373 462.355C652.159 459.322 651.074 456.102 650.118 452.695H654.633C654.866 453.675 655.146 454.737 655.473 455.88C655.823 457.023 656.196 458.19 656.593 459.38C656.989 460.547 657.409 461.713 657.853 462.88C658.296 464.047 658.739 465.132 659.183 466.135C659.929 464.058 660.629 461.853 661.283 459.52C661.936 457.163 662.531 454.888 663.068 452.695H667.443ZM682.792 461.935C682.792 460.045 682.36 458.575 681.497 457.525C680.657 456.475 679.292 455.95 677.402 455.95C677.005 455.95 676.585 455.973 676.142 456.02C675.722 456.043 675.302 456.113 674.882 456.23V466.695C675.255 466.952 675.745 467.197 676.352 467.43C676.982 467.64 677.647 467.745 678.347 467.745C679.887 467.745 681.007 467.22 681.707 466.17C682.43 465.12 682.792 463.708 682.792 461.935ZM687.132 461.865C687.132 463.265 686.945 464.548 686.572 465.715C686.222 466.882 685.709 467.885 685.032 468.725C684.355 469.565 683.504 470.218 682.477 470.685C681.474 471.152 680.33 471.385 679.047 471.385C678.184 471.385 677.39 471.28 676.667 471.07C675.944 470.86 675.349 470.627 674.882 470.37V477.475H670.647V453.29C671.51 453.057 672.572 452.835 673.832 452.625C675.092 452.415 676.422 452.31 677.822 452.31C679.269 452.31 680.564 452.532 681.707 452.975C682.85 453.418 683.819 454.06 684.612 454.9C685.429 455.717 686.047 456.72 686.467 457.91C686.91 459.077 687.132 460.395 687.132 461.865ZM690.482 461.935C690.482 460.325 690.715 458.913 691.182 457.7C691.672 456.487 692.313 455.483 693.107 454.69C693.9 453.873 694.81 453.267 695.837 452.87C696.863 452.45 697.913 452.24 698.987 452.24C701.507 452.24 703.467 453.022 704.867 454.585C706.29 456.148 707.002 458.482 707.002 461.585C707.002 461.818 706.99 462.087 706.967 462.39C706.967 462.67 706.955 462.927 706.932 463.16H694.857C694.973 464.63 695.487 465.773 696.397 466.59C697.33 467.383 698.672 467.78 700.422 467.78C701.448 467.78 702.382 467.687 703.222 467.5C704.085 467.313 704.762 467.115 705.252 466.905L705.812 470.37C705.578 470.487 705.252 470.615 704.832 470.755C704.435 470.872 703.968 470.977 703.432 471.07C702.918 471.187 702.358 471.28 701.752 471.35C701.145 471.42 700.527 471.455 699.897 471.455C698.287 471.455 696.887 471.222 695.697 470.755C694.507 470.265 693.527 469.6 692.757 468.76C691.987 467.897 691.415 466.893 691.042 465.75C690.668 464.583 690.482 463.312 690.482 461.935ZM702.767 460.045C702.767 459.462 702.685 458.913 702.522 458.4C702.358 457.863 702.113 457.408 701.787 457.035C701.483 456.638 701.098 456.335 700.632 456.125C700.188 455.892 699.652 455.775 699.022 455.775C698.368 455.775 697.797 455.903 697.307 456.16C696.817 456.393 696.397 456.708 696.047 457.105C695.72 457.502 695.463 457.957 695.277 458.47C695.09 458.983 694.962 459.508 694.892 460.045H702.767ZM710.477 461.865C710.477 460.512 710.687 459.252 711.107 458.085C711.527 456.895 712.122 455.868 712.892 455.005C713.685 454.142 714.642 453.465 715.762 452.975C716.882 452.485 718.142 452.24 719.542 452.24C721.269 452.24 722.902 452.555 724.442 453.185L723.532 456.65C723.042 456.44 722.482 456.265 721.852 456.125C721.245 455.985 720.592 455.915 719.892 455.915C718.235 455.915 716.975 456.44 716.112 457.49C715.249 458.517 714.817 459.975 714.817 461.865C714.817 463.685 715.225 465.132 716.042 466.205C716.859 467.255 718.235 467.78 720.172 467.78C720.895 467.78 721.607 467.71 722.307 467.57C723.007 467.43 723.614 467.255 724.127 467.045L724.722 470.545C724.255 470.778 723.544 470.988 722.587 471.175C721.654 471.362 720.685 471.455 719.682 471.455C718.119 471.455 716.754 471.222 715.587 470.755C714.444 470.265 713.487 469.6 712.717 468.76C711.97 467.897 711.41 466.882 711.037 465.715C710.664 464.525 710.477 463.242 710.477 461.865ZM728.001 471V444.54L732.236 443.84V452.905C732.702 452.742 733.239 452.602 733.846 452.485C734.476 452.368 735.094 452.31 735.701 452.31C737.171 452.31 738.384 452.52 739.341 452.94C740.321 453.337 741.102 453.908 741.686 454.655C742.269 455.378 742.677 456.253 742.911 457.28C743.167 458.307 743.296 459.45 743.296 460.71V471H739.061V461.375C739.061 460.395 738.991 459.567 738.851 458.89C738.734 458.19 738.524 457.63 738.221 457.21C737.941 456.767 737.556 456.452 737.066 456.265C736.576 456.055 735.969 455.95 735.246 455.95C734.686 455.95 734.114 456.008 733.531 456.125C732.947 456.242 732.516 456.347 732.236 456.44V471H728.001ZM764.927 461.83C764.927 463.277 764.717 464.595 764.297 465.785C763.877 466.975 763.282 467.99 762.512 468.83C761.742 469.67 760.808 470.323 759.712 470.79C758.638 471.257 757.448 471.49 756.142 471.49C754.835 471.49 753.645 471.257 752.572 470.79C751.498 470.323 750.577 469.67 749.807 468.83C749.037 467.99 748.43 466.975 747.987 465.785C747.567 464.595 747.357 463.277 747.357 461.83C747.357 460.383 747.567 459.077 747.987 457.91C748.43 456.72 749.037 455.705 749.807 454.865C750.6 454.025 751.533 453.383 752.607 452.94C753.68 452.473 754.858 452.24 756.142 452.24C757.425 452.24 758.603 452.473 759.677 452.94C760.773 453.383 761.707 454.025 762.477 454.865C763.247 455.705 763.842 456.72 764.262 457.91C764.705 459.077 764.927 460.383 764.927 461.83ZM760.587 461.83C760.587 460.01 760.19 458.575 759.397 457.525C758.627 456.452 757.542 455.915 756.142 455.915C754.742 455.915 753.645 456.452 752.852 457.525C752.082 458.575 751.697 460.01 751.697 461.83C751.697 463.673 752.082 465.132 752.852 466.205C753.645 467.278 754.742 467.815 756.142 467.815C757.542 467.815 758.627 467.278 759.397 466.205C760.19 465.132 760.587 463.673 760.587 461.83Z" fill="white"/>
<path d="M654.5 59C658.04 59 661.325 60.8143 663.194 63.8192L724.564 161.734C726.15 164.257 727 167.177 727 170.153C727 178.913 719.92 186 711.169 186H597.831C589.08 186 582 178.913 582 170.153C582 167.177 582.85 164.257 584.436 161.734L645.777 63.8192C647.646 60.8143 650.96 59 654.5 59ZM672.908 113.429L654.5 84.0598L632.099 119.807L640.906 131.571L654.5 113.429H672.908Z" fill="#606E7A"/>
</g>
</g>
<defs>
<filter id="filter0_d_301_6" x="0" y="0" width="1310" height="557" filterUnits="userSpaceOnUse" color-interpolation-filters="sRGB">
<feFlood flood-opacity="0" result="BackgroundImageFix"/>
<feColorMatrix in="SourceAlpha" type="matrix" values="0 0 0 0 0 0 0 0 0 0 0 0 0 0 0 0 0 0 127 0" result="hardAlpha"/>
<feOffset/>
<feGaussianBlur stdDeviation="7.5"/>
<feComposite in2="hardAlpha" operator="out"/>
<feColorMatrix type="matrix" values="0 0 0 0 0 0 0 0 0 0 0 0 0 0 0 0 0 0 0.25 0"/>
<feBlend mode="normal" in2="BackgroundImageFix" result="effect1_dropShadow_301_6"/>
<feBlend mode="normal" in="SourceGraphic" in2="effect1_dropShadow_301_6" result="shape"/>
</filter>
<clipPath id="clip0_301_6">
<rect x="15" y="15" width="1280" height="527" rx="15" fill="white"/>
</clipPath>
</defs>
</svg>
